<svg xmlns="http://www.w3.org/2000/svg" width="60" height="60" viewBox="0 0 48 48">
  <defs>
    <clipPath id="a"><path d="M0 0h48v48H0z"></path></clipPath>
  </defs>
  <g clip-path="url(#a)">
    <!-- Mavi daire arka plan -->
    <circle cx="24" cy="24" r="24" fill="#007BFF"></circle>
    <!-- Beyaz telefon ikonu -->
    <path fill="#fff" d="M34.8 28.6l-4.6-2a2 2 0 0 0-2.3.5l-1.9 2a22.2 22.2 0 0 1-8.1-8.1l2-1.9a2 2 0 0 0 .5-2.3l-2-4.6a2 2 0 0 0-2.3-1.2h-.1c-1.6.4-2.7 1.8-3 3.4-.2 1.4-.3 3.5 1.4 6.7 2.5 4.7 6.6 8.8 11.3 11.3 3.2 1.7 5.3 1.6 6.7 1.4 1.6-.3 3-1.4 3.4-3v-.1c.2-.9-.3-1.8-1.2-2.1z"></path>
  </g>
</svg>
