<svg xmlns="http://www.w3.org/2000/svg" width="60" height="60" viewBox="0 0 24 24" fill="white">
  <path fill="#25D366" d="M20.52 3.48A11.78 11.78 0 0 0 12 0C5.37 0 0 5.37 0 12c0 2.1.54 4.13 1.57 5.93L0 24l6.28-1.64A11.9 11.9 0 0 0 12 24c6.63 0 12-5.37 12-12 0-3.2-1.25-6.21-3.48-8.52zM12 22a9.9 9.9 0 0 1-5.05-1.38l-.36-.21-3.73.97 1-3.64-.24-.38A9.9 9.9 0 0 1 2 12c0-5.5 4.5-10 10-10s10 4.5 10 10-4.5 10-10 10zm5.2-7.42c-.29-.15-1.7-.84-1.96-.94-.26-.1-.45-.15-.64.15s-.74.94-.9 1.13c-.16.19-.33.21-.62.07-.29-.15-1.23-.45-2.35-1.44-.87-.78-1.46-1.74-1.63-2.03-.17-.29-.02-.45.13-.6.14-.14.29-.33.43-.5.14-.17.19-.29.29-.48.1-.19.05-.36-.03-.5-.08-.15-.64-1.55-.88-2.13-.23-.55-.47-.48-.64-.49-.16-.01-.36-.01-.55-.01s-.5.07-.77.36c-.26.29-1 1-1 2.44 0 1.43 1.03 2.81 1.17 3 .14.19 2.02 3.09 4.88 4.33.68.29 1.21.47 1.63.6.68.22 1.3.19 1.79.12.55-.08 1.7-.69 1.94-1.35.24-.67.24-1.24.17-1.36-.07-.12-.26-.19-.55-.34z"></path>
</svg>
